<?xml version="1.0" encoding="UTF-8"?>
<svg width="179px" height="53px" viewBox="0 0 179 53" version="1.1" xmlns="http://www.w3.org/2000/svg" xmlns:xlink="http://www.w3.org/1999/xlink">
    <!-- Generator: Sketch 54.1 (76490) - https://sketchapp.com -->
    <title>Appstore</title>
    <desc>Created with Sketch.</desc>
    <g id="Our-Services" stroke="none" stroke-width="1" fill="none" fill-rule="evenodd">
        <g id="Hermes-mobile-app" transform="translate(-200.000000, -530.000000)">
            <g id="Section" transform="translate(0.000000, 99.000000)">
                <g id="Content" transform="translate(200.000000, 116.000000)">
                    <g id="Appstore" transform="translate(0.000000, 315.000000)">
                        <path d="M0,4.91704203 C0,2.2014347 2.20666595,0 4.93030418,0 L174.069696,0 C176.792628,0 179,2.20117777 179,4.91704203 L179,48.0752735 C179,50.7908808 176.793334,52.9923155 174.069696,52.9923155 L4.93030418,52.9923155 C2.20737237,52.9923155 0,50.7911377 0,48.0752735 L0,4.91704203 Z" id="background" fill="#000000"></path>
                        <path d="M68.7067898,40.6971147 L71.7153085,40.6971147 L65.1294335,22.5046601 L62.0829923,22.5046601 L55.4971174,40.6971147 L58.4045094,40.6971147 L60.0857404,35.8684868 L67.0381996,35.8684868 L68.7067898,40.6971147 Z M63.4608433,25.8077946 L63.6757375,25.8077946 L66.317672,33.4982986 L60.806268,33.4982986 L63.4608433,25.8077946 Z M79.6924458,26.740741 C77.8216023,26.740741 76.2035754,27.6736874 75.3692803,29.237003 L75.1670269,29.237003 L75.1670269,26.9676739 L72.5503741,26.9676739 L72.5503741,45.1475211 L75.2681536,45.1475211 L75.2681536,38.6168964 L75.4830478,38.6168964 C76.2035754,40.0667455 77.7583981,40.9240476 79.7177275,40.9240476 C83.1939571,40.9240476 85.4061032,38.1882453 85.4061032,33.8260906 C85.4061032,29.4639359 83.1939571,26.740741 79.6924458,26.740741 L79.6924458,26.740741 Z M78.9213549,38.4908225 C76.6460046,38.4908225 75.2175903,36.7005741 75.2175903,33.838698 C75.2175903,30.9642145 76.6460046,29.173966 78.9339957,29.173966 C81.2346277,29.173966 82.6124787,30.9263924 82.6124787,33.8260906 C82.6124787,36.7383962 81.2346277,38.4908225 78.9213549,38.4908225 L78.9213549,38.4908225 Z M93.7877472,26.740741 C91.9169036,26.740741 90.2988768,27.6736874 89.4645817,29.237003 L89.2623283,29.237003 L89.2623283,26.9676739 L86.6456755,26.9676739 L86.6456755,45.1475211 L89.363455,45.1475211 L89.363455,38.6168964 L89.5783492,38.6168964 C90.2988768,40.0667455 91.8536995,40.9240476 93.8130289,40.9240476 C97.2892584,40.9240476 99.5014045,38.1882453 99.5014045,33.8260906 C99.5014045,29.4639359 97.2892584,26.740741 93.7877472,26.740741 L93.7877472,26.740741 Z M93.0166563,38.4908225 C90.741306,38.4908225 89.3128917,36.7005741 89.3128917,33.838698 C89.3128917,30.9642145 90.741306,29.173966 93.0292971,29.173966 C95.329929,29.173966 96.70778,30.9263924 96.70778,33.8260906 C96.70778,36.7383962 95.329929,38.4908225 93.0166563,38.4908225 L93.0166563,38.4908225 Z M105.254525,35.8054498 C105.456779,39.0581548 108.174558,41.1383731 112.219625,41.1383731 C116.542791,41.1383731 119.24793,38.9572957 119.24793,35.4776579 C119.24793,32.7418556 117.705748,31.2289696 113.964061,30.3590601 L111.954168,29.8673721 C109.577691,29.3126473 108.616988,28.5688116 108.616988,27.2702511 C108.616988,25.6312912 110.108606,24.5596636 112.346034,24.5596636 C114.469694,24.5596636 115.936031,25.6060765 116.201488,27.2828585 L118.95719,27.2828585 C118.79286,24.2192643 116.087721,22.0634017 112.383956,22.0634017 C108.402093,22.0634017 105.747518,24.2192643 105.747518,27.4593619 C105.747518,30.1321272 107.251777,31.7206575 110.551035,32.4897079 L112.902231,33.0570402 C115.31663,33.6243725 116.37846,34.4564598 116.37846,35.843272 C116.37846,37.4570171 114.70987,38.6295038 112.43452,38.6295038 C109.994839,38.6295038 108.300967,37.5326614 108.060791,35.8054498 L105.254525,35.8054498 Z M121.587255,23.6393246 L121.587255,27.0307108 L119.324545,27.0307108 L119.324545,29.3126473 L121.587255,29.3126473 L121.587255,37.0661882 C121.587255,39.7137388 122.788134,40.772759 125.809293,40.772759 C126.340209,40.772759 126.833201,40.7097221 127.262989,40.6340778 L127.262989,38.3773561 C126.883764,38.4151782 126.66887,38.440393 126.251723,38.440393 C124.899153,38.440393 124.305034,37.8100238 124.305034,36.3727821 L124.305034,29.3126473 L127.389398,29.3126473 L127.389398,27.0307108 L124.305034,27.0307108 L124.305034,23.6393246 L121.587255,23.6393246 Z M134.127733,38.5538595 C131.763897,38.5538595 130.43661,36.8266479 130.43661,33.8260906 C130.43661,30.8507481 131.763897,29.1109291 134.127733,29.1109291 C136.478929,29.1109291 137.818857,30.8507481 137.818857,33.8260906 C137.818857,36.8140405 136.478929,38.5538595 134.127733,38.5538595 L134.127733,38.5538595 Z M134.127733,40.9618697 C138.147519,40.9618697 140.612482,38.276497 140.612482,33.8260906 C140.612482,29.4008989 138.134878,26.7029188 134.127733,26.7029188 C130.107948,26.7029188 127.630344,29.4008989 127.630344,33.8260906 C127.630344,38.276497 130.095307,40.9618697 134.127733,40.9618697 L134.127733,40.9618697 Z M141.852054,40.6971147 L144.569833,40.6971147 L144.569833,32.590567 C144.569833,30.6616373 146.023529,29.3630768 148.071345,29.3630768 C148.526415,29.3630768 149.36071,29.4513285 149.575604,29.5269728 L149.575604,26.8542074 C149.284865,26.7785631 148.766591,26.740741 148.374725,26.740741 C146.579726,26.740741 145.062826,27.7241169 144.67096,29.073107 L144.468707,29.073107 L144.468707,26.9676739 L141.852054,26.9676739 L141.852054,40.6971147 Z M155.694539,29.01007 C157.704431,29.01007 159.019078,30.4094896 159.082282,32.5653522 L152.129823,32.5653522 C152.281513,30.422097 153.684646,29.01007 155.694539,29.01007 L155.694539,29.01007 Z M159.069642,36.9905439 C158.564008,38.0621715 157.438974,38.6547185 155.795665,38.6547185 C153.621442,38.6547185 152.218309,37.1292251 152.129823,34.7212148 L152.129823,34.5699262 L161.850625,34.5699262 L161.850625,33.6243725 C161.850625,29.3126473 159.537352,26.7029188 155.707179,26.7029188 C151.826443,26.7029188 149.36148,29.4891506 149.36148,33.8765201 C149.36148,38.2638896 151.77588,40.9618697 155.71982,40.9618697 C158.867388,40.9618697 161.066893,39.4489837 161.686294,36.9905439 L159.069642,36.9905439 Z" id="App-Store" fill="#FFFFFF"></path>
                        <path d="M58.044065,8.3043035 L58.044065,16.9673771 L61.180196,16.9673771 C63.7685574,16.9673771 65.2673992,15.3764454 65.2673992,12.6088245 C65.2673992,9.88322822 63.7565185,8.3043035 61.180196,8.3043035 L58.044065,8.3043035 Z M59.3924207,9.52902077 L61.0297098,9.52902077 C62.8295239,9.52902077 63.8949657,10.6696888 63.8949657,12.626835 C63.8949657,14.6139988 62.8475823,15.7426599 61.0297098,15.7426599 L59.3924207,15.7426599 L59.3924207,9.52902077 Z M70.0119259,15.9467794 C68.8862897,15.9467794 68.2542479,15.1242977 68.2542479,13.6954609 C68.2542479,12.2786311 68.8862897,11.4501459 70.0119259,11.4501459 C71.1315427,11.4501459 71.7696039,12.2786311 71.7696039,13.6954609 C71.7696039,15.1182942 71.1315427,15.9467794 70.0119259,15.9467794 L70.0119259,15.9467794 Z M70.0119259,17.093451 C71.9261095,17.093451 73.0999013,15.814702 73.0999013,13.6954609 C73.0999013,11.5882268 71.92009,10.3034743 70.0119259,10.3034743 C68.0977423,10.3034743 66.9179311,11.5882268 66.9179311,13.6954609 C66.9179311,15.814702 68.0917229,17.093451 70.0119259,17.093451 L70.0119259,17.093451 Z M83.2438703,10.4295482 L81.9496895,10.4295482 L80.7819172,15.41847 L80.6795866,15.41847 L79.3312309,10.4295482 L78.0912252,10.4295482 L76.7428695,15.41847 L76.6465584,15.41847 L75.4727666,10.4295482 L74.1605275,10.4295482 L75.9663611,16.9673771 L77.2966584,16.9673771 L78.6450142,12.1525573 L78.7473447,12.1525573 L80.1017199,16.9673771 L81.4440562,16.9673771 L83.2438703,10.4295482 Z M84.8883827,16.9673771 L86.1825634,16.9673771 L86.1825634,13.1431374 C86.1825634,12.1225397 86.8206246,11.486167 87.8619886,11.486167 C88.8250998,11.486167 89.2946165,12.0084729 89.2946165,13.0590882 L89.2946165,16.9673771 L90.5887972,16.9673771 L90.5887972,12.7348983 C90.5887972,11.1799877 89.7641333,10.3034743 88.3014081,10.3034743 C87.3142191,10.3034743 86.5497495,10.741731 86.2307189,11.4681564 L86.1344078,11.4681564 L86.1344078,10.4295482 L84.8883827,10.4295482 L84.8883827,16.9673771 Z M92.7750597,16.9673771 L94.0692404,16.9673771 L94.0692404,7.87805386 L92.7750597,7.87805386 L92.7750597,16.9673771 Z M99.0846421,15.9467794 C97.9590059,15.9467794 97.3269642,15.1242977 97.3269642,13.6954609 C97.3269642,12.2786311 97.9590059,11.4501459 99.0846421,11.4501459 C100.204259,11.4501459 100.84232,12.2786311 100.84232,13.6954609 C100.84232,15.1182942 100.204259,15.9467794 99.0846421,15.9467794 L99.0846421,15.9467794 Z M99.0846421,17.093451 C100.998826,17.093451 102.172618,15.814702 102.172618,13.6954609 C102.172618,11.5882268 100.992806,10.3034743 99.0846421,10.3034743 C97.1704586,10.3034743 95.9906473,11.5882268 95.9906473,13.6954609 C95.9906473,15.814702 97.1644391,17.093451 99.0846421,17.093451 L99.0846421,17.093451 Z M106.176752,15.988804 C105.472477,15.988804 104.960825,15.6466036 104.960825,15.058259 C104.960825,14.4819215 105.370147,14.1757422 106.273064,14.115707 L107.874236,14.0136472 L107.874236,14.5599672 C107.874236,15.3704419 107.151903,15.988804 106.176752,15.988804 L106.176752,15.988804 Z M105.845683,17.0754404 C106.706464,17.0754404 107.422778,16.7032224 107.814042,16.0488392 L107.916372,16.0488392 L107.916372,16.9673771 L109.162397,16.9673771 L109.162397,12.5007612 C109.162397,11.1199525 108.235403,10.3034743 106.592094,10.3034743 C105.105291,10.3034743 104.045869,11.0238963 103.913441,12.1465538 L105.165486,12.1465538 C105.309952,11.684283 105.809566,11.4201283 106.5319,11.4201283 C107.416758,11.4201283 107.874236,11.8103569 107.874236,12.5007612 L107.874236,13.0650917 L106.0985,13.1671515 C104.539463,13.2632077 103.660624,13.941605 103.660624,15.1182942 C103.660624,16.3129939 104.581599,17.0754404 105.845683,17.0754404 L105.845683,17.0754404 Z M113.708282,17.0754404 C114.611199,17.0754404 115.375669,16.6491908 115.766932,15.9347724 L115.869263,15.9347724 L115.869263,16.9673771 L117.109269,16.9673771 L117.109269,7.87805386 L115.815088,7.87805386 L115.815088,11.4681564 L115.718777,11.4681564 C115.36363,10.7477345 114.60518,10.3214849 113.708282,10.3214849 C112.052935,10.3214849 110.987493,11.6302514 110.987493,13.6954609 C110.987493,15.7666739 112.040896,17.0754404 113.708282,17.0754404 L113.708282,17.0754404 Z M114.075468,11.4801635 C115.158969,11.4801635 115.839166,12.3386663 115.839166,13.7014644 C115.839166,15.0702661 115.164988,15.9167618 114.075468,15.9167618 C112.979929,15.9167618 112.32381,15.0822731 112.32381,13.6954609 C112.32381,12.3206557 112.985949,11.4801635 114.075468,11.4801635 L114.075468,11.4801635 Z M125.803755,15.9467794 C124.678119,15.9467794 124.046077,15.1242977 124.046077,13.6954609 C124.046077,12.2786311 124.678119,11.4501459 125.803755,11.4501459 C126.923372,11.4501459 127.561433,12.2786311 127.561433,13.6954609 C127.561433,15.1182942 126.923372,15.9467794 125.803755,15.9467794 L125.803755,15.9467794 Z M125.803755,17.093451 C127.717939,17.093451 128.891731,15.814702 128.891731,13.6954609 C128.891731,11.5882268 127.711919,10.3034743 125.803755,10.3034743 C123.889572,10.3034743 122.709761,11.5882268 122.709761,13.6954609 C122.709761,15.814702 123.883552,17.093451 125.803755,17.093451 L125.803755,17.093451 Z M130.752943,16.9673771 L132.047124,16.9673771 L132.047124,13.1431374 C132.047124,12.1225397 132.685185,11.486167 133.726549,11.486167 C134.68966,11.486167 135.159177,12.0084729 135.159177,13.0590882 L135.159177,16.9673771 L136.453358,16.9673771 L136.453358,12.7348983 C136.453358,11.1799877 135.628694,10.3034743 134.165969,10.3034743 C133.17878,10.3034743 132.41431,10.741731 132.095279,11.4681564 L131.998968,11.4681564 L131.998968,10.4295482 L130.752943,10.4295482 L130.752943,16.9673771 Z M142.715988,8.84461994 L142.715988,10.4595658 L141.638508,10.4595658 L141.638508,11.5462022 L142.715988,11.5462022 L142.715988,15.2383645 C142.715988,16.4991029 143.287836,17.0033982 144.726483,17.0033982 C144.9793,17.0033982 145.214058,16.9733806 145.418719,16.9373595 L145.418719,15.8627302 C145.238136,15.8807407 145.135805,15.8927478 144.937164,15.8927478 C144.293083,15.8927478 144.010169,15.592572 144.010169,14.9081711 L144.010169,11.5462022 L145.478914,11.5462022 L145.478914,10.4595658 L144.010169,10.4595658 L144.010169,8.84461994 L142.715988,8.84461994 Z M147.322068,16.9673771 L148.616249,16.9673771 L148.616249,13.1491409 C148.616249,12.1585608 149.272368,11.4921705 150.33179,11.4921705 C151.306941,11.4921705 151.794516,12.0204799 151.794516,13.0650917 L151.794516,16.9673771 L153.088696,16.9673771 L153.088696,12.7469054 C153.088696,11.1919947 152.245974,10.3094779 150.77121,10.3094779 C149.784021,10.3094779 149.025571,10.7477345 148.70654,11.4801635 L148.60421,11.4801635 L148.60421,7.87805386 L147.322068,7.87805386 L147.322068,16.9673771 Z M157.911476,11.4021178 C158.868568,11.4021178 159.49459,12.068508 159.524687,13.0951093 L156.213992,13.0951093 C156.286226,12.0745116 156.954384,11.4021178 157.911476,11.4021178 L157.911476,11.4021178 Z M159.518668,15.2023434 C159.27789,15.7126423 158.742159,15.9948075 157.959631,15.9948075 C156.924287,15.9948075 156.256128,15.2683821 156.213992,14.1217105 L156.213992,14.0496683 L160.842946,14.0496683 L160.842946,13.5994046 C160.842946,11.5462022 159.741387,10.3034743 157.917495,10.3034743 C156.069526,10.3034743 154.895734,11.6302514 154.895734,13.719475 C154.895734,15.8086985 156.045448,17.093451 157.923515,17.093451 C159.422357,17.093451 160.46974,16.373029 160.764693,15.2023434 L159.518668,15.2023434 Z" id="Download-on-the" fill="#FFFFFF"></path>
                        <g id="logo_apple" transform="translate(16.026171, 8.237785)" fill="#FFFFFF">
                            <path d="M23.8347088,18.5109449 C23.7950365,14.1135206 27.4448837,11.9741594 27.6117808,11.874559 C25.5447197,8.86881102 22.3408433,8.45813006 21.2149722,8.42538474 C18.5240991,8.14295631 15.9139385,10.0312701 14.5431938,10.0312701 C13.1450889,10.0312701 11.0342515,8.45267251 8.75925309,8.49906172 C5.83171451,8.54408654 3.09296112,10.234564 1.59088759,12.8596475 C-1.50902009,18.2121438 0.802914584,26.0778438 3.77286144,30.4043199 C5.25851887,32.5245797 6.99452189,34.8890651 9.26678432,34.8058373 C11.4897984,34.7157877 12.3201797,33.3923308 15.0028447,33.3923308 C17.6608856,33.3923308 18.4406506,34.8058373 20.7580573,34.7512618 C23.1438644,34.7157877 24.6459379,32.6241801 26.079611,30.4848188 C27.7964619,28.058936 28.4859383,25.6644341 28.5132985,25.5416391 C28.4585782,25.523902 23.8812211,23.7815779 23.8347088,18.5109449" id="Fill-2"></path>
                            <path d="M19.457081,5.57927022 C20.6527206,4.08799354 21.4707898,2.05914776 21.2437003,0.0002854408 C19.5131694,0.0766911996 17.3489796,1.19412542 16.1027237,2.65265678 C15.0001087,3.9379108 14.0151425,6.04452672 14.2695921,8.02561889 C16.2135324,8.17024408 18.2094571,7.0473523 19.457081,5.57927022" id="Fill-3"></path>
                        </g>
                    </g>
                </g>
            </g>
        </g>
    </g>
</svg>