<?xml version="1.0" encoding="UTF-8"?>
<svg width="179px" height="53px" viewBox="0 0 179 53" version="1.1" xmlns="http://www.w3.org/2000/svg" xmlns:xlink="http://www.w3.org/1999/xlink">
    <!-- Generator: Sketch 54.1 (76490) - https://sketchapp.com -->
    <title>Illustrations / App / Google play store</title>
    <desc>Created with Sketch.</desc>
    <defs>
        <linearGradient x1="50%" y1="0%" x2="50%" y2="38.9125982%" id="linearGradient-1">
            <stop stop-color="#FBDA09" offset="0%"></stop>
            <stop stop-color="#FFBC00" offset="100%"></stop>
        </linearGradient>
        <path d="M29.1683186,15.0709427 C30.9890283,16.1037667 30.9894452,17.7780932 29.1683186,18.8111836 L3.32055668,33.4741274 C1.49984696,34.5069814 0.0238701001,33.6519935 0.0238701001,31.5633532 L0.0238701001,2.31925324 C0.0238701001,0.231107819 1.49943014,-0.624635668 3.32055668,0.408424784 L29.1683186,15.0709427 Z" id="path-2"></path>
        <linearGradient x1="37.4493011%" y1="58.4755255%" x2="54.8461978%" y2="39.0830098%" id="linearGradient-4">
            <stop stop-color="#01E2FF" offset="0%"></stop>
            <stop stop-color="#01C4FF" offset="100%"></stop>
        </linearGradient>
        <linearGradient x1="20.2810876%" y1="32.5254958%" x2="83.820166%" y2="69.6507437%" id="linearGradient-5">
            <stop stop-color="#28D781" offset="0%"></stop>
            <stop stop-color="#02F076" offset="100%"></stop>
        </linearGradient>
        <linearGradient x1="74.4881466%" y1="35.2474547%" x2="10.1079427%" y2="68.6542325%" id="linearGradient-6">
            <stop stop-color="#F2414E" offset="0%"></stop>
            <stop stop-color="#E02554" offset="100%"></stop>
        </linearGradient>
    </defs>
    <g id="Our-Services" stroke="none" stroke-width="1" fill="none" fill-rule="evenodd">
        <g id="Hermes-mobile-app" transform="translate(-405.000000, -530.000000)">
            <g id="Section" transform="translate(0.000000, 99.000000)">
                <g id="Content" transform="translate(200.000000, 116.000000)">
                    <g id="Illustrations-/-App-/-Google-play-store-black" transform="translate(205.000000, 315.000000)">
                        <g id="Playstore">
                            <path d="M0,4.91704203 C0,2.2014347 2.20666595,0 4.93030418,0 L174.069696,0 C176.792628,0 179,2.20117777 179,4.91704203 L179,48.0752735 C179,50.7908808 176.793334,52.9923155 174.069696,52.9923155 L4.93030418,52.9923155 C2.20737237,52.9923155 0,50.7911377 0,48.0752735 L0,4.91704203 Z" id="background" fill="#000000"></path>
                            <g id="get-it-on" transform="translate(54.891728, 8.884295)" fill="#FFFFFF">
                                <path d="M39.9650303,8.64417938 C37.5716725,8.64417938 35.6314728,6.70911391 35.6314728,4.32208969 C35.6314728,1.93506547 37.5716725,0 39.9650303,0 C42.358388,0 44.2985878,1.93506547 44.2985878,4.32208969 C44.2985878,6.70911391 42.358388,8.64417938 39.9650303,8.64417938 Z M39.9650303,7.32354086 C41.6270842,7.32354086 42.9744452,5.9797454 42.9744452,4.32208969 C42.9744452,2.66443398 41.6270842,1.32063852 39.9650303,1.32063852 C38.3029763,1.32063852 36.9556153,2.66443398 36.9556153,4.32208969 C36.9556153,5.9797454 38.3029763,7.32354086 39.9650303,7.32354086 Z" id="o"></path>
                                <path d="M10.5931406,4.80232188 L10.5931406,7.44359891 L14.0840619,7.44359891 L14.0840619,8.40406329 L10.5931406,8.40406329 L9.26899798,8.40406329 L9.26899798,0.480232188 L9.26899798,0.360174141 L14.0840619,0.360174141 L14.0840619,1.32063852 L10.5931406,1.32063852 L10.5931406,3.8418575 L13.7229321,3.8418575 L13.7229321,4.80232188 L10.5931406,4.80232188 Z" id="e"></path>
                                <path d="M18.7787492,1.32063852 L18.7787492,8.40406329 L17.4546066,8.40406329 L17.4546066,1.32063852 L15.4082044,1.32063852 L15.4082044,0.360174141 L20.8251513,0.360174141 L20.8251513,1.32063852 L18.7787492,1.32063852 Z" id="t"></path>
                                <path d="M30.5756557,1.32063852 L30.5756557,8.40406329 L29.2515131,8.40406329 L29.2515131,1.32063852 L27.205111,1.32063852 L27.205111,0.360174141 L32.6220578,0.360174141 L32.6220578,1.32063852 L30.5756557,1.32063852 Z" id="t"></path>
                                <rect id="i" x="24.6772024" y="0.360174141" width="1.32414257" height="8.04388914"></rect>
                                <path d="M46.7061197,0.360174141 L46.9468729,0.360174141 L50.5581708,6.24594669 L50.5581708,0.360174141 L51.8823134,0.360174141 L51.8823134,8.40406329 L50.5581708,8.40406329 L46.7061197,2.1259059 L46.7061197,8.40406329 L45.3819771,8.40406329 L45.3819771,0.360174141 L46.7061197,0.360174141 Z" id="n"></path>
                                <g id="g" transform="translate(0.000000, 0.120058)">
                                    <polygon id="Rectangle-1" points="4.30746729 3.86228073 7.93291893 3.86228073 7.89702337 5.00666021 4.30746729 5.00666021"></polygon>
                                    <path d="M7.21948807,1.16966897 L6.38988322,1.99618375 C5.87243377,1.4690961 5.13750123,1.18014133 4.28951951,1.18014133 C2.59451871,1.18014133 1.22044907,2.5490929 1.22044907,4.23778025 C1.22044907,5.92646759 2.59451871,7.29541916 4.28951951,7.29541916 C5.98452031,7.29541916 7.18794583,6.31916233 7.18542192,4.23778025 C7.18828869,4.10915219 7.18528213,3.98394392 7.17665975,3.86228073 L8.2356775,3.86228073 C8.23579765,3.87643103 8.23585783,3.89061011 8.23585783,3.90481779 C8.63421443,6.81899018 6.64208091,8.49700364 4.25362395,8.47556049 C1.90441457,8.47220457 0,6.57824165 0,4.23778025 C0,1.89731884 1.90441231,0 4.25362395,0 C5.48156824,0 6.51383501,0.427413994 7.21948807,1.16966897 Z" id="Oval-1"></path>
                                </g>
                            </g>
                            <g id="googleplay" transform="translate(54.289845, 23.051145)" fill="#FFFFFF">
                                <g id="big-P" transform="translate(75.114997, 0.600290)">
                                    <path d="M0.601882986,4.21961027e-07 L7.4263806,0 C7.4263806,0 11.3550558,0.666650444 11.3550554,5.16607359 C11.3550551,9.66549673 7.4263806,10.3321472 7.4263806,10.3321472 L0.601882986,10.3321476 L0.601882986,4.21961027e-07 Z M1.92602555,2.49923789 L1.92602555,8.04388914 L6.55882796,8.04388914 C6.55882796,8.04388914 8.667115,8.04388914 8.667115,5.27156352 C8.667115,2.49923789 6.55882796,2.49923789 6.55882796,2.49923789 L1.92602555,2.49923789 Z" id="Combined-Shape"></path>
                                    <rect id="Rectangle-6" x="0" y="0" width="2.40753194" height="16.8081266"></rect>
                                </g>
                                <rect id="y" x="87.8749159" y="0.600290235" width="2.40753194" height="16.8081266"></rect>
                                <path d="M99.2057266,16.2066517 C98.5426074,16.7523259 97.4824462,17.265896 95.8080266,17.3701952 C91.9720219,17.6091391 91.9700233,14.1179585 91.9700233,13.8825324 C91.9700233,13.6471063 91.7808181,10.8000069 94.8322591,10.3474443 C96.9929795,10.0269855 98.5063333,10.5609315 99.2057266,10.8999561 L99.2057266,10.4061038 C99.0342161,9.7520482 98.5019768,8.55026679 96.9063455,8.55026679 C94.7141853,8.55026679 94.2300822,9.73232267 94.2300822,9.73232267 L92.2247068,8.55026679 C92.2247068,8.55026679 93.3468786,6.24301844 96.714025,6.24301844 C100.900745,6.24301844 101.613508,9.12313654 101.613508,10.0931563 C101.613508,10.0978779 101.613425,10.102569 101.613259,10.1072297 L101.613259,17.4030236 L99.2057266,17.4030236 L99.2057266,16.2066517 Z M99.0337432,12.6064467 C99.0337432,12.6064467 94.3956,11.3596134 94.2343729,13.9583308 C94.0731459,16.5570481 98.6840163,15.3092183 99.0959887,13.467019 C99.0959887,12.8812084 99.0337432,12.6064467 99.0337432,12.6064467 Z" id="a"></path>
                                <path d="M106.130828,16.7707189 L101.838601,6.60319258 L104.246133,6.60319258 L107.334594,13.9192103 L110.398506,6.6613457 L112.806038,6.6613457 L106.292535,22.0906806 L103.885003,22.0906806 L106.130828,16.7707189 Z" id="y"></path>
                                <path d="M69.7251763,10.5321709 L62.1108792,13.6706675 C62.1108792,13.6706675 62.6026386,15.4065651 64.8919317,15.4181998 C66.6845335,15.4273102 67.6964675,13.8335182 67.6964675,13.8335182 L69.6283168,15.1383617 C69.6283168,15.1383617 68.0694203,17.6529008 64.8767151,17.6529008 C60.9533206,17.6529008 59.2252858,14.2312902 59.2252858,12.0091833 C59.2252858,9.86824072 60.596901,6.24301844 64.6332495,6.24301844 C68.6695981,6.24301844 69.7251763,10.5321709 69.7251763,10.5321709 Z M66.8280973,9.64308069 C66.8280973,9.64308069 65.870113,8.18938845 64.4009039,8.45748142 C61.2930604,9.02458313 61.6841561,11.7370619 61.6841561,11.7370619 L66.8280973,9.64308069 Z" id="e"></path>
                                <rect id="i" x="55.6139879" y="0.600290235" width="2.54702414" height="16.7728154"></rect>
                                <path d="M51.5380238,6.60754622 L53.8924994,6.62783253 L53.8924994,17.2109649 C53.8924994,19.9149261 52.2783697,22.7692167 48.4783174,22.7692167 C44.678265,22.7692167 43.450988,19.4112321 43.450988,19.4112321 L45.6133542,18.5042334 C45.6133542,18.5042334 46.2728619,20.5737569 48.5906861,20.5737542 C51.2301803,20.573751 51.5383164,18.1787505 51.5383164,17.3589348 L51.5383164,16.2104198 C51.5383164,16.2104198 50.625028,17.6360332 48.3565846,17.6360363 C45.8971291,17.6360397 42.9744452,15.5344113 42.9744452,11.9515516 C42.9744452,8.36869183 45.7265276,6.31933626 48.3850426,6.24479041 C50.5144885,6.18507988 51.5380238,7.65426594 51.5380238,7.65426594 L51.5380238,6.60754622 Z M48.5576193,15.4854178 C50.2745995,15.4854178 51.666487,13.9167781 51.666487,11.981763 C51.666487,10.0467479 50.2745995,8.47810825 48.5576193,8.47810825 C46.840639,8.47810825 45.4487516,10.0467479 45.4487516,11.981763 C45.4487516,13.9167781 46.840639,15.4854178 48.5576193,15.4854178 Z" id="g"></path>
                                <path d="M36.1860834,17.6485329 C33.0210476,17.6485329 30.4552791,15.0953215 30.4552791,11.9457757 C30.4552791,8.79622982 33.0210476,6.24301844 36.1860834,6.24301844 C39.3511192,6.24301844 41.9168877,8.79622982 41.9168877,11.9457757 C41.9168877,15.0953215 39.3511192,17.6485329 36.1860834,17.6485329 Z M36.1486272,15.4121575 C37.9276669,15.4121575 39.3698636,13.8602055 39.3698636,11.9457757 C39.3698636,10.0313458 37.9276669,8.47939382 36.1486272,8.47939382 C34.3695874,8.47939382 32.9273907,10.0313458 32.9273907,11.9457757 C32.9273907,13.8602055 34.3695874,15.4121575 36.1486272,15.4121575 Z" id="o"></path>
                                <path d="M23.7872939,17.6485329 C20.6222581,17.6485329 18.0564896,15.0953215 18.0564896,11.9457757 C18.0564896,8.79622982 20.6222581,6.24301844 23.7872939,6.24301844 C26.9523297,6.24301844 29.5180982,8.79622982 29.5180982,11.9457757 C29.5180982,15.0953215 26.9523297,17.6485329 23.7872939,17.6485329 Z M23.7498376,15.4121575 C25.5288774,15.4121575 26.9710741,13.8602055 26.9710741,11.9457757 C26.9710741,10.0313458 25.5288774,8.47939382 23.7498376,8.47939382 C21.9707979,8.47939382 20.5286012,10.0313458 20.5286012,11.9457757 C20.5286012,13.8602055 21.9707979,15.4121575 23.7498376,15.4121575 Z" id="o"></path>
                                <g id="big-g">
                                    <polygon id="Rectangle-1" points="8.98949696 8.05095138 16.5556569 8.05095138 16.4807444 10.4364185 8.98949696 10.4364185"></polygon>
                                    <path d="M15.0667577,2.43818321 L13.3354084,4.16105909 C12.2555139,3.06234117 10.7217417,2.46001292 8.95204072,2.46001292 C5.41464774,2.46001292 2.54702414,5.31360211 2.54702414,8.83368277 C2.54702414,12.3537634 5.41464774,15.2073526 8.95204072,15.2073526 C12.4894337,15.2073526 15.0009304,13.1723384 14.9956631,8.83368277 C15.001646,8.56555669 14.9953714,8.30455915 14.9773769,8.05095138 L17.1875009,8.05095138 C17.1877516,8.08044778 17.1878772,8.11000417 17.1878772,8.13962017 C18.0192301,14.214233 13.8617341,17.7120639 8.87712824,17.6673655 C3.97443042,17.6603701 0,13.712391 0,8.83368277 C0,3.95497449 3.97442569,0 8.87712824,0 C11.4397946,0 13.5940905,0.890947481 15.0667577,2.43818321 Z" id="Oval-1"></path>
                                </g>
                            </g>
                            <g id="logo_play" transform="translate(13.121049, 9.364528)">
                                <mask id="mask-3" fill="white">
                                    <use xlink:href="#path-2"></use>
                                </mask>
                                <use id="yellow" fill="url(#linearGradient-1)" xlink:href="#path-2"></use>
                                <polygon id="blue" fill="url(#linearGradient-4)" mask="url(#mask-3)" points="5.55111512e-17 -0.0118390579 16.8270646 16.6684679 -0.217346634 34.0080624"></polygon>
                                <polygon id="green" fill="url(#linearGradient-5)" mask="url(#mask-3)" points="-3.46026987 -3.44572066 16.8250676 16.6733469 22.8561349 10.9350344"></polygon>
                                <polygon id="red" fill="url(#linearGradient-6)" mask="url(#mask-3)" points="16.8278309 16.6695084 26.0607902 25.9512716 -1.52179797 35.2330348"></polygon>
                            </g>
                        </g>
                    </g>
                </g>
            </g>
        </g>
    </g>
</svg>